# xmcd
#
# Track frame offsets: 
#        150
#        16106
#        31032
#        47059
#        61094
#        78716
#        103383
#        116469
#        131296
#        148059
#        163786
#        175947
#        188476
#        201987
#
# Disc length: 2954 seconds
#
# Revision: 4
# Processed by: cddbd v1.5.2PL0 Copyright (c) Steve Scherf et al.
# Submitted via: ExactAudioCopy v1.0b6
#
DISCID=b80b880e
DTITLE=Sérgio Reis - Nossas Canções
DYEAR=2002
DGENRE=Other
TTITLE0=O Tempo Vai Apagar
TTITLE1=Como Vai Você
TTITLE2=Com Muito Amor e Carinho
TTITLE3=Outra Vez
TTITLE4=Eu Daria a Minha Vida
TTITLE5=O Homem Bom
TTITLE6=A Namorada
TTITLE7=Nossa Canção
TTITLE8=Vivendo por Viver
TTITLE9=Abandono
TTITLE10=Custe o que Custar
TTITLE11=Não Precisas Chorar
TTITLE12=Se Eu Partir
TTITLE13=De Coração para Coração
EXTD=
EXTT0=
EXTT1=
EXTT2=
EXTT3=
EXTT4=
EXTT5=
EXTT6=
EXTT7=
EXTT8=
EXTT9=
EXTT10=
EXTT11=
EXTT12=
EXTT13=
PLAYORDER=
